<svg xmlns="http://www.w3.org/2000/svg" width="184" height="80" fill="none" viewBox="0 0 184 80"><g clip-path="url(#clip0_1_2)"><path fill="#212121" d="M68 35.0357H70.9286L71.2857 37.5357H71.5357C72.1309 36.5833 72.9286 35.8571 73.9286 35.3571C74.9524 34.8571 76.0833 34.6071 77.3214 34.6071C79.7024 34.6071 81.5357 35.4167 82.8214 37.0357C84.1071 38.6309 84.75 41.0952 84.75 44.4286C84.75 47.7143 84.1071 50.1786 82.8214 51.8214C81.5357 53.4405 79.7857 54.25 77.5714 54.25C74.9762 54.25 73.0833 53.3928 71.8929 51.6786H71.6786V60H68V35.0357ZM76.2857 51.1428C77.9762 51.1428 79.1786 50.6428 79.8929 49.6428C80.6071 48.6428 80.9643 46.9762 80.9643 44.6428V44.3214C80.9643 41.9405 80.6071 40.25 79.8929 39.25C79.1786 38.2262 77.9762 37.7143 76.2857 37.7143C74.6905 37.7143 73.5238 38.2738 72.7857 39.3929C72.0476 40.5119 71.6786 42.1548 71.6786 44.3214V44.6071C71.6786 46.75 72.0476 48.3809 72.7857 49.5C73.5238 50.5952 74.6905 51.1428 76.2857 51.1428Z"/><path fill="#212121" d="M96.3658 54.25C93.342 54.25 91.092 53.4524 89.6158 51.8571C88.1396 50.2619 87.4015 47.7857 87.4015 44.4286C87.4015 41.0714 88.1396 38.5952 89.6158 37C91.092 35.4048 93.342 34.6071 96.3658 34.6071C99.1039 34.6071 101.151 35.3571 102.509 36.8571C103.866 38.3333 104.544 40.6905 104.544 43.9286V45.3571H91.1872C91.2824 47.3809 91.7348 48.8809 92.5444 49.8571C93.3777 50.8095 94.6634 51.2857 96.4015 51.2857C97.7586 51.2857 98.8539 50.9643 99.6872 50.3214C100.521 49.6786 100.937 48.6905 100.937 47.3571H104.544C104.544 49.5952 103.782 51.3095 102.259 52.5C100.759 53.6667 98.7943 54.25 96.3658 54.25ZM100.723 42.5714C100.723 39.2381 99.2705 37.5714 96.3658 37.5714C94.7467 37.5714 93.5324 37.9762 92.7229 38.7857C91.9134 39.5714 91.4253 40.8333 91.2586 42.5714H100.723Z"/><path fill="#212121" d="M116.211 54.25C113.187 54.25 110.937 53.4524 109.461 51.8571C107.985 50.2619 107.247 47.7857 107.247 44.4286C107.247 41.0714 107.985 38.5952 109.461 37C110.937 35.4048 113.187 34.6071 116.211 34.6071C118.949 34.6071 120.997 35.3571 122.354 36.8571C123.711 38.3333 124.389 40.6905 124.389 43.9286V45.3571H111.032C111.128 47.3809 111.58 48.8809 112.389 49.8571C113.223 50.8095 114.509 51.2857 116.247 51.2857C117.604 51.2857 118.699 50.9643 119.532 50.3214C120.366 49.6786 120.782 48.6905 120.782 47.3571H124.389C124.389 49.5952 123.628 51.3095 122.104 52.5C120.604 53.6667 118.639 54.25 116.211 54.25ZM120.568 42.5714C120.568 39.2381 119.116 37.5714 116.211 37.5714C114.592 37.5714 113.378 37.9762 112.568 38.7857C111.759 39.5714 111.27 40.8333 111.104 42.5714H120.568Z"/><path fill="#212121" d="M128.163 35.0357H131.127L131.485 37.9286H131.699C132.556 35.7143 133.997 34.6071 136.02 34.6071C136.687 34.6071 137.27 34.7024 137.77 34.8929V38.3929H136.449C135.044 38.3929 133.925 38.7976 133.092 39.6071C132.258 40.4167 131.842 41.6548 131.842 43.3214V53.8214H128.163V35.0357Z"/><path fill="#212121" d="M140.649 28H144.328V53.8214H140.649V28Z"/><path fill="#212121" d="M149.194 28H152.837V31.75H149.194V28ZM149.194 35.0357H152.873V53.8214H149.194V35.0357Z"/><path fill="#212121" d="M164.489 54.25C161.918 54.25 159.953 53.7143 158.596 52.6428C157.263 51.5714 156.596 50.2262 156.596 48.6071C156.596 48.3452 156.596 48.1786 156.596 48.1071C156.62 48.0119 156.632 47.9524 156.632 47.9286H160.239V48.25C160.239 49.2738 160.656 50.0476 161.489 50.5714C162.322 51.0714 163.382 51.3214 164.668 51.3214C165.81 51.3214 166.763 51.1071 167.525 50.6786C168.31 50.25 168.703 49.6428 168.703 48.8571C168.703 48.2381 168.489 47.7381 168.06 47.3571C167.632 46.9524 167.108 46.6428 166.489 46.4286C165.87 46.1905 164.977 45.9167 163.81 45.6071C162.382 45.25 161.215 44.8928 160.31 44.5357C159.406 44.1786 158.632 43.6428 157.989 42.9286C157.37 42.2143 157.06 41.2619 157.06 40.0714C157.06 38.3571 157.763 37.0238 159.168 36.0714C160.572 35.0952 162.441 34.6071 164.775 34.6071C166.227 34.6071 167.489 34.8333 168.56 35.2857C169.656 35.7143 170.489 36.3214 171.06 37.1071C171.656 37.8929 171.953 38.7738 171.953 39.75L171.918 40.4643H168.31V40.2143C168.31 39.4286 167.989 38.7976 167.346 38.3214C166.727 37.8214 165.763 37.5714 164.453 37.5714C163.191 37.5714 162.263 37.7976 161.668 38.25C161.096 38.6786 160.81 39.1905 160.81 39.7857C160.81 40.5238 161.168 41.0714 161.882 41.4286C162.596 41.7857 163.727 42.1428 165.275 42.5C166.775 42.8571 168.001 43.2262 168.953 43.6071C169.906 43.9643 170.727 44.5357 171.418 45.3214C172.108 46.0833 172.453 47.1071 172.453 48.3928C172.453 50.3928 171.727 51.869 170.275 52.8214C168.846 53.7738 166.918 54.25 164.489 54.25Z"/><path fill="#212121" d="M180.689 54.2143C179.261 54.2143 178.225 53.8095 177.582 53C176.939 52.1667 176.618 51.1428 176.618 49.9286V38.0714H174.332V35.0357H176.653L177.368 29.7857H180.296V35.0357H183.475V38.0714H180.296V49.5714C180.296 50.6667 180.808 51.2143 181.832 51.2143H183.475V53.7143C183.165 53.8571 182.737 53.9762 182.189 54.0714C181.665 54.1667 181.165 54.2143 180.689 54.2143Z"/><path fill="#444D56" d="M68.004 64.768H71.928C72.848 64.768 73.54 65.004 74.004 65.476C74.468 65.94 74.7 66.6 74.7 67.456C74.7 68.312 74.456 68.98 73.968 69.46C73.488 69.932 72.768 70.168 71.808 70.168H69.744V73H68.004V64.768ZM71.772 68.692C72.148 68.692 72.436 68.584 72.636 68.368C72.836 68.152 72.936 67.848 72.936 67.456C72.936 67.072 72.836 66.776 72.636 66.568C72.436 66.352 72.148 66.244 71.772 66.244H69.744V68.692H71.772ZM77.2439 64.768H81.6119C82.5319 64.768 83.2239 64.996 83.6879 65.452C84.1519 65.9 84.3839 66.532 84.3839 67.348C84.3839 68.5 83.9039 69.268 82.9439 69.652L84.6239 73H82.7399L81.2879 69.928H78.9839V73H77.2439V64.768ZM81.4559 68.476C81.8319 68.476 82.1199 68.376 82.3199 68.176C82.5199 67.976 82.6199 67.7 82.6199 67.348C82.6199 66.996 82.5199 66.724 82.3199 66.532C82.1199 66.34 81.8319 66.244 81.4559 66.244H78.9839V68.476H81.4559ZM91.0041 73.144C89.6841 73.144 88.6601 72.792 87.9321 72.088C87.2041 71.376 86.8401 70.308 86.8401 68.884C86.8401 67.46 87.2041 66.396 87.9321 65.692C88.6601 64.98 89.6841 64.624 91.0041 64.624C92.3321 64.624 93.3601 64.98 94.0881 65.692C94.8161 66.396 95.1801 67.46 95.1801 68.884C95.1801 70.308 94.8161 71.376 94.0881 72.088C93.3601 72.792 92.3321 73.144 91.0041 73.144ZM91.0041 71.668C91.7881 71.668 92.3801 71.444 92.7801 70.996C93.1881 70.54 93.3921 69.896 93.3921 69.064V68.704C93.3921 67.872 93.1881 67.232 92.7801 66.784C92.3801 66.328 91.7881 66.1 91.0041 66.1C90.2201 66.1 89.6281 66.328 89.2281 66.784C88.8281 67.232 88.6281 67.872 88.6281 68.704V69.064C88.6281 69.896 88.8281 70.54 89.2281 70.996C89.6281 71.444 90.2201 71.668 91.0041 71.668ZM97.7159 64.768H103.68V66.244H99.4559V68.272H103.236V69.748H99.4559V73H97.7159V64.768ZM106.288 64.768H108.028V73H106.288V64.768ZM110.864 64.768H112.604V71.488H117.044V73H110.864V64.768ZM119.436 64.768H125.904V66.244H121.176V68.056H125.376V69.532H121.176V71.524H125.976V73H119.436V64.768ZM135.242 64.768H137.426L140.642 73H138.746L138.158 71.428H134.414L133.826 73H132.026L135.242 64.768ZM137.606 69.976L136.826 67.888C136.73 67.632 136.558 67.092 136.31 66.268H136.25C136.002 67.092 135.83 67.632 135.734 67.888L134.954 69.976H137.606ZM146.386 73.144C143.73 73.144 142.402 71.724 142.402 68.884C142.402 67.46 142.75 66.396 143.446 65.692C144.142 64.98 145.122 64.624 146.386 64.624C147.082 64.624 147.706 64.744 148.258 64.984C148.818 65.216 149.258 65.576 149.578 66.064C149.906 66.544 150.07 67.132 150.07 67.828H148.282C148.282 67.292 148.11 66.872 147.766 66.568C147.422 66.256 146.974 66.1 146.422 66.1C145.67 66.1 145.11 66.324 144.742 66.772C144.374 67.22 144.19 67.864 144.19 68.704V69.064C144.19 70.8 144.934 71.668 146.422 71.668C147.006 71.668 147.47 71.516 147.814 71.212C148.166 70.908 148.342 70.488 148.342 69.952H150.07C150.07 70.656 149.91 71.248 149.59 71.728C149.27 72.2 148.834 72.556 148.282 72.796C147.73 73.028 147.098 73.144 146.386 73.144ZM154.59 66.268H152.046V64.768H158.874V66.268H156.33V73H154.59V66.268ZM161.17 64.768H162.91V73H161.17V64.768ZM169.61 73.144C168.29 73.144 167.266 72.792 166.538 72.088C165.81 71.376 165.446 70.308 165.446 68.884C165.446 67.46 165.81 66.396 166.538 65.692C167.266 64.98 168.29 64.624 169.61 64.624C170.938 64.624 171.966 64.98 172.694 65.692C173.422 66.396 173.786 67.46 173.786 68.884C173.786 70.308 173.422 71.376 172.694 72.088C171.966 72.792 170.938 73.144 169.61 73.144ZM169.61 71.668C170.394 71.668 170.986 71.444 171.386 70.996C171.794 70.54 171.998 69.896 171.998 69.064V68.704C171.998 67.872 171.794 67.232 171.386 66.784C170.986 66.328 170.394 66.1 169.61 66.1C168.826 66.1 168.234 66.328 167.834 66.784C167.434 67.232 167.234 67.872 167.234 68.704V69.064C167.234 69.896 167.434 70.54 167.834 70.996C168.234 71.444 168.826 71.668 169.61 71.668ZM176.322 64.768H178.014L181.182 69.244C181.278 69.38 181.438 69.648 181.662 70.048L181.722 70.012L181.686 69.316V64.768H183.378V73H181.686L178.506 68.488C178.354 68.272 178.198 68.008 178.038 67.696L177.978 67.732C178.002 68.076 178.014 68.316 178.014 68.452V73H176.322V64.768Z"/><mask id="mask0_1_2" width="56" height="56" x="0" y="24" maskUnits="userSpaceOnUse" style="mask-type:alpha"><path fill="#fff" d="M28 24C6.22222 24 0 30.2222 0 52C0 73.7778 6.23778 80 28 80C49.7622 80 56 73.7778 56 52C56 30.2222 49.7622 24 28 24Z"/></mask><g mask="url(#mask0_1_2)"><path fill="url(#paint0_linear_1_2)" stroke="#219653" stroke-width="2" d="M1 52C1 41.132 2.57153 34.5094 6.54044 30.5404C10.5094 26.5715 17.132 25 28 25C38.86 25 45.4829 26.5714 49.4539 30.5406C53.4247 34.5096 55 41.1325 55 52C55 62.8675 53.4247 69.4904 49.4539 73.4594C45.4829 77.4286 38.86 79 28 79C17.14 79 10.5171 77.4286 6.54611 73.4594C2.57526 69.4904 1 62.8675 1 52Z"/><g filter="url(#filter0_d_1_2)"><path fill="#fff" d="M17 58.4H26.6C26.6 63.702 22.3019 68 17 68V58.4Z"/></g><g filter="url(#filter1_d_1_2)"><path fill="#fff" d="M17 36H28.2C34.3856 36 39.4 41.0144 39.4 47.2C39.4 53.3856 34.3856 58.4 28.2 58.4H17V36Z"/></g><g filter="url(#filter2_i_1_2)"><path fill="#27AE60" d="M25 44H28.2C29.9673 44 31.4 45.4327 31.4 47.2C31.4 48.9673 29.9673 50.4 28.2 50.4H25V44Z"/></g></g></g><defs><filter id="filter0_d_1_2" width="13.6" height="13.6" x="15" y="58.4" color-interpolation-filters="sRGB" filterUnits="userSpaceOnUse"><feFlood flood-opacity="0" result="BackgroundImageFix"/><feColorMatrix in="SourceAlpha" result="hardAlpha" type="matrix" values="0 0 0 0 0 0 0 0 0 0 0 0 0 0 0 0 0 0 127 0"/><feOffset dy="2"/><feGaussianBlur stdDeviation="1"/><feColorMatrix type="matrix" values="0 0 0 0 0 0 0 0 0 0 0 0 0 0 0 0 0 0 0.2 0"/><feBlend in2="BackgroundImageFix" mode="normal" result="effect1_dropShadow_1_2"/><feBlend in="SourceGraphic" in2="effect1_dropShadow_1_2" mode="normal" result="shape"/></filter><filter id="filter1_d_1_2" width="26.4" height="26.4" x="15" y="36" color-interpolation-filters="sRGB" filterUnits="userSpaceOnUse"><feFlood flood-opacity="0" result="BackgroundImageFix"/><feColorMatrix in="SourceAlpha" result="hardAlpha" type="matrix" values="0 0 0 0 0 0 0 0 0 0 0 0 0 0 0 0 0 0 127 0"/><feOffset dy="2"/><feGaussianBlur stdDeviation="1"/><feColorMatrix type="matrix" values="0 0 0 0 0 0 0 0 0 0 0 0 0 0 0 0 0 0 0.2 0"/><feBlend in2="BackgroundImageFix" mode="normal" result="effect1_dropShadow_1_2"/><feBlend in="SourceGraphic" in2="effect1_dropShadow_1_2" mode="normal" result="shape"/></filter><filter id="filter2_i_1_2" width="6.4" height="8.4" x="25" y="44" color-interpolation-filters="sRGB" filterUnits="userSpaceOnUse"><feFlood flood-opacity="0" result="BackgroundImageFix"/><feBlend in="SourceGraphic" in2="BackgroundImageFix" mode="normal" result="shape"/><feColorMatrix in="SourceAlpha" result="hardAlpha" type="matrix" values="0 0 0 0 0 0 0 0 0 0 0 0 0 0 0 0 0 0 127 0"/><feOffset dy="2"/><feGaussianBlur stdDeviation="1"/><feComposite in2="hardAlpha" k2="-1" k3="1" operator="arithmetic"/><feColorMatrix type="matrix" values="0 0 0 0 0 0 0 0 0 0 0 0 0 0 0 0 0 0 0.25 0"/><feBlend in2="shape" mode="normal" result="effect1_innerShadow_1_2"/></filter><linearGradient id="paint0_linear_1_2" x1="28" x2="28" y1="24" y2="80" gradientUnits="userSpaceOnUse"><stop stop-color="#27AE60"/><stop offset="1" stop-color="#1E874B"/></linearGradient><clipPath id="clip0_1_2"><rect width="184" height="80" fill="#fff"/></clipPath></defs></svg>